<?xml version="1.0" encoding="utf-8"?><svg viewBox="0 0 41.09 40.03" xmlns="http://www.w3.org/2000/svg" xmlns:xlink="http://www.w3.org/1999/xlink"><style>:root>svg{display:none}:root>svg:target{display:block}</style><svg viewBox="0 0 38.844 35.35" id="ico-html5" xmlns="http://www.w3.org/2000/svg"><defs><filter id="afilter" x="487.281" y="1395.03" width="38.844" height="35.35" filterUnits="userSpaceOnUse"><feFlood result="flood" flood-color="#ffe600"/><feComposite result="composite" operator="in" in2="SourceGraphic"/><feBlend result="blend" in2="SourceGraphic"/></filter><style>.acls-1{fill:#fff;fill-rule:evenodd;filter:url(#afilter)}</style></defs><path id="aIcon" class="acls-1" d="M493.034 1395.04l-1.056 5.96h26.462l-1.066 5.01h-26.483l-1.268 5.92 26.743.04-1.769 7.95-10.666 3.54-9.245-3.54.459-2.95h-6.634l-1.239 7.54 15.288 5.85 17.626-5.85 5.947-29.47h-33.1z" transform="translate(-487.281 -1395.03)"/></svg><svg viewBox="0 0 41.09 40.03" id="ico-options" xmlns="http://www.w3.org/2000/svg"><defs><style>.bcls-1{fill:#fff;fill-rule:evenodd}</style></defs><path id="bIcon" class="bcls-1" d="M1430.04 1413.75v-7.36l-6.24-1.11a13.662 13.662 0 00-.86-2.05l3.44-4.73-5.4-5.32-4.81 3.37a15.244 15.244 0 00-2.09-.85l-.97-5.73h-7.64l-.97 5.73a14.871 14.871 0 00-2.1.85l-4.8-3.37-5.4 5.31 3.43 4.74a15.531 15.531 0 00-.86 2.05l-5.83.96v7.51l5.85.96a13.436 13.436 0 00.86 2.03l-3.45 4.75 5.4 5.32 4.83-3.4a14.82 14.82 0 002.06.84l.98 5.76h7.64l.97-5.76a14.82 14.82 0 002.06-.84l4.84 3.39 5.4-5.31-3.45-4.75a14.541 14.541 0 00.86-2.03zm-20.75 1.25a5.006 5.006 0 115.09-5.01 5.049 5.049 0 01-5.09 5.01" transform="translate(-1388.94 -1389.97)"/></svg><svg viewBox="0 0 38.375 38.41" id="ico-pen" xmlns="http://www.w3.org/2000/svg"><defs><style>.ccls-1{fill:#fff;fill-rule:evenodd}</style></defs><path id="cIcon" class="ccls-1" d="M826.328 1402.77l-8.4-8.4 2.4-2.4 8.4 8.4zm-2.4 2.4l-1.2 13.2c-10.8 0-26.4 12-26.4 12l-1.993-1.99 10.264-10.26a3.656 3.656 0 001.329.25 3.6 3.6 0 10-3.346-2.27l-10.261 10.26-1.993-1.99s12-15.6 12-26.4l13.2-1.2z" transform="translate(-790.344 -1391.97)"/></svg><svg viewBox="0 0 38.91 31.03" id="ico-photo" xmlns="http://www.w3.org/2000/svg"><defs><style>.dcls-1{fill:#fff;fill-rule:evenodd}</style></defs><path id="dIcon" class="dcls-1" d="M1102.61 1411.94a7.906 7.906 0 107.9-7.76 7.83 7.83 0 00-7.9 7.76m24.93-13.13h-8.51c-.61-2.39-1.22-4.78-3.65-4.78h-9.73c-2.43 0-3.04 2.39-3.65 4.78h-8.52a2.416 2.416 0 00-2.43 2.38v21.5a2.424 2.424 0 002.43 2.39h34.06a2.427 2.427 0 002.44-2.39v-21.5a2.418 2.418 0 00-2.44-2.38m-17.03 23.73a10.6 10.6 0 1110.8-10.6 10.692 10.692 0 01-10.8 10.6m17.47-16.54l-4.99.03v-2.07l4.99.03v2.01z" transform="translate(-1091.06 -1394.03)"/></svg></svg>